<?xml version="1.0" encoding="UTF-8" standalone="no"?>
<svg
   xmlns:dc="http://purl.org/dc/elements/1.1/"
   xmlns:cc="http://creativecommons.org/ns#"
   xmlns:rdf="http://www.w3.org/1999/02/22-rdf-syntax-ns#"
   xmlns:svg="http://www.w3.org/2000/svg"
   xmlns="http://www.w3.org/2000/svg"
   xmlns:sodipodi="http://sodipodi.sourceforge.net/DTD/sodipodi-0.dtd"
   xmlns:inkscape="http://www.inkscape.org/namespaces/inkscape"
   width="1150"
   height="150"
   viewBox="0 0 1150 150"
   version="1.1"
   id="svg90"
   sodipodi:docname="logo.svg"
   inkscape:version="0.92.5 (2060ec1f9f, 2020-04-08)"
   style="fill:none">
  <metadata
     id="metadata96">
    <rdf:RDF>
      <cc:Work
         rdf:about="">
        <dc:format>image/svg+xml</dc:format>
        <dc:type
           rdf:resource="http://purl.org/dc/dcmitype/StillImage" />
        <dc:title></dc:title>
      </cc:Work>
    </rdf:RDF>
  </metadata>
  <defs
     id="defs94" />
  <sodipodi:namedview
     pagecolor="#ffffff"
     bordercolor="#666666"
     borderopacity="1"
     objecttolerance="10"
     gridtolerance="10"
     guidetolerance="10"
     inkscape:pageopacity="0"
     inkscape:pageshadow="2"
     inkscape:window-width="1920"
     inkscape:window-height="1018"
     id="namedview92"
     showgrid="false"
     inkscape:zoom="0.87007829"
     inkscape:cx="924.04919"
     inkscape:cy="41.759356"
     inkscape:window-x="0"
     inkscape:window-y="25"
     inkscape:window-maximized="1"
     inkscape:current-layer="svg90" />
  <rect
     x="711.49323"
     y="30.828123"
     width="25"
     height="100"
     id="rect2"
     style="fill:#f9f9f9" />
  <rect
     width="75"
     height="25"
     id="rect4"
     style="fill:#f9f9f9"
     x="11.493218"
     y="29.828123" />
  <rect
     y="105.82812"
     width="75"
     height="25"
     id="rect6"
     style="fill:#f9f9f9"
     x="11.493218" />
  <rect
     width="25"
     height="50"
     id="rect8"
     style="fill:#f9f9f9"
     x="11.493218"
     y="29.828123" />
  <rect
     x="61.493217"
     y="67.828117"
     width="25"
     height="50"
     id="rect10"
     style="fill:#f9f9f9" />
  <rect
     y="67.828117"
     width="75"
     height="25"
     id="rect12"
     style="fill:#f9f9f9"
     x="11.493218" />
  <rect
     x="411.49323"
     width="75"
     height="25"
     id="rect14"
     style="fill:#f9f9f9"
     y="29.828123" />
  <rect
     x="411.49323"
     y="105.82812"
     width="75"
     height="25"
     id="rect16"
     style="fill:#f9f9f9" />
  <rect
     x="411.49323"
     width="25"
     height="50"
     id="rect18"
     style="fill:#f9f9f9"
     y="29.828123" />
  <rect
     x="461.49323"
     y="67.828117"
     width="25"
     height="50"
     id="rect20"
     style="fill:#f9f9f9" />
  <rect
     x="411.49323"
     y="67.828117"
     width="75"
     height="25"
     id="rect22"
     style="fill:#f9f9f9" />
  <rect
     x="811.49323"
     y="30.828123"
     width="75"
     height="25"
     id="rect24"
     style="fill:#f9f9f9" />
  <rect
     x="811.49323"
     y="106.82812"
     width="75"
     height="25"
     id="rect26"
     style="fill:#f9f9f9" />
  <rect
     x="811.49323"
     y="30.828123"
     width="25"
     height="50"
     id="rect28"
     style="fill:#f9f9f9" />
  <rect
     x="861.49323"
     y="68.828117"
     width="25"
     height="50"
     id="rect30"
     style="fill:#f9f9f9" />
  <rect
     x="811.49323"
     y="68.828117"
     width="75"
     height="25"
     id="rect32"
     style="fill:#f9f9f9" />
  <rect
     x="111.49322"
     y="30.828123"
     width="25"
     height="100"
     id="rect34"
     style="fill:#f9f9f9" />
  <rect
     x="236.49323"
     y="30.828123"
     width="25"
     height="100"
     id="rect36"
     style="fill:#f9f9f9" />
  <rect
     x="511.49323"
     width="25"
     height="100"
     id="rect38"
     style="fill:#f9f9f9"
     y="29.828123" />
  <rect
     x="336.49323"
     width="25"
     height="100"
     id="rect40"
     style="fill:#f9f9f9"
     y="29.828123" />
  <rect
     x="161.49323"
     y="30.828123"
     width="25"
     height="100"
     id="rect42"
     style="fill:#f9f9f9" />
  <rect
     x="111.49322"
     width="75"
     height="25"
     id="rect44"
     style="fill:#f9f9f9"
     y="29.828123" />
  <rect
     x="211.49323"
     width="75"
     height="25"
     id="rect46"
     style="fill:#f9f9f9"
     y="29.828123" />
  <rect
     x="1086.4932"
     y="31.828123"
     width="25"
     height="100"
     id="rect48"
     style="fill:#f9f9f9" />
  <rect
     x="1061.4932"
     y="30.828123"
     width="75"
     height="25"
     id="rect50"
     style="fill:#f9f9f9" />
  <rect
     x="511.49323"
     y="68.828117"
     width="75"
     height="25"
     id="rect52"
     style="fill:#f9f9f9" />
  <rect
     x="811.49323"
     y="68.828117"
     width="75"
     height="25"
     id="rect54"
     style="fill:#f9f9f9" />
  <rect
     x="711.49323"
     y="68.828117"
     width="75"
     height="25"
     id="rect56"
     style="fill:#f9f9f9" />
  <rect
     x="711.49323"
     y="106.82812"
     width="75"
     height="25"
     id="rect58"
     style="fill:#f9f9f9" />
  <rect
     x="711.49323"
     y="30.828123"
     width="75"
     height="25"
     id="rect60"
     style="fill:#f9f9f9" />
  <rect
     x="511.49323"
     width="75"
     height="25"
     id="rect62"
     style="fill:#f9f9f9"
     y="29.828123" />
  <rect
     x="311.49323"
     y="105.82812"
     width="75"
     height="25"
     id="rect64"
     style="fill:#f9f9f9" />
  <rect
     x="311.49323"
     width="75"
     height="25"
     id="rect66"
     style="fill:#f9f9f9"
     y="29.828123" />
  <rect
     x="986.49323"
     y="30.828123"
     width="25"
     height="100"
     id="rect68"
     style="fill:#f9f9f9" />
  <rect
     x="961.49323"
     y="106.82812"
     width="75"
     height="25"
     id="rect70"
     style="fill:#f9f9f9" />
  <rect
     x="961.49323"
     y="30.828123"
     width="75"
     height="25"
     id="rect72"
     style="fill:#f9f9f9" />
  <rect
     x="636.49323"
     width="25"
     height="100"
     id="rect74"
     style="fill:#f9f9f9"
     y="29.828123" />
  <rect
     x="911.49323"
     y="106.82812"
     width="25"
     height="25"
     id="rect76"
     style="fill:#f9f9f9;stroke-width:0.70710677" />
  <rect
     x="961.49323"
     y="30.828123"
     width="25"
     height="26"
     id="rect78"
     style="fill:#f9f9f9" />
  <rect
     x="861.49323"
     y="68.828117"
     width="25"
     height="50"
     id="rect80"
     style="fill:#f9f9f9" />
  <rect
     x="611.49323"
     y="105.82812"
     width="75"
     height="25"
     id="rect82"
     style="fill:#f9f9f9" />
  <rect
     x="611.49323"
     width="75"
     height="25"
     id="rect84"
     style="fill:#f9f9f9"
     y="29.828123" />
  <rect
     x="111.49322"
     y="68.828117"
     width="75"
     height="25"
     id="rect86"
     style="fill:#f9f9f9" />
  <rect
     x="811.49323"
     y="106.82812"
     width="75"
     height="25"
     id="rect88"
     style="fill:#f9f9f9" />
</svg>
