<svg width="975" height="242" viewBox="0 0 975 242" fill="none" xmlns="http://www.w3.org/2000/svg">
<rect x="700" y="1" width="25" height="100" fill="white"/>
<rect width="75" height="25" fill="white"/>
<rect y="76" width="75" height="25" fill="white"/>
<rect width="25" height="50" fill="white"/>
<rect x="50" y="38" width="25" height="50" fill="white"/>
<rect y="38" width="75" height="25" fill="white"/>
<rect x="400" width="75" height="25" fill="white"/>
<rect x="400" y="76" width="75" height="25" fill="white"/>
<rect x="400" width="25" height="50" fill="white"/>
<rect x="450" y="38" width="25" height="50" fill="white"/>
<rect x="400" y="38" width="75" height="25" fill="white"/>
<rect x="800" y="1" width="75" height="25" fill="white"/>
<rect x="800" y="77" width="75" height="25" fill="white"/>
<rect x="800" y="1" width="25" height="50" fill="white"/>
<rect x="850" y="39" width="25" height="50" fill="white"/>
<rect x="800" y="39" width="75" height="25" fill="white"/>
<rect x="100" y="1" width="25" height="100" fill="white"/>
<rect x="225" y="1" width="25" height="100" fill="white"/>
<rect x="500" width="25" height="100" fill="white"/>
<rect x="325" width="25" height="100" fill="white"/>
<rect x="150" y="1" width="25" height="100" fill="white"/>
<rect x="100" width="75" height="25" fill="white"/>
<rect x="200" width="75" height="25" fill="white"/>
<rect x="925" y="142" width="25" height="100" fill="white"/>
<rect x="900" y="141" width="75" height="25" fill="white"/>
<rect x="500" y="39" width="75" height="25" fill="white"/>
<rect x="800" y="39" width="75" height="25" fill="#01CEDF"/>
<rect x="700" y="39" width="75" height="25" fill="white"/>
<rect x="700" y="77" width="75" height="25" fill="white"/>
<rect x="700" y="1" width="75" height="25" fill="white"/>
<rect x="500" width="75" height="25" fill="white"/>
<rect x="300" y="76" width="75" height="25" fill="white"/>
<rect x="300" width="75" height="25" fill="white"/>
<rect x="825" y="141" width="25" height="100" fill="white"/>
<rect x="800" y="217" width="75" height="25" fill="white"/>
<rect x="800" y="141" width="75" height="25" fill="white"/>
<rect x="625" width="25" height="100" fill="white"/>
<rect x="800" y="77" width="25" height="50" fill="#01CEDF"/>
<rect x="800" y="141" width="25" height="26" fill="#01CEDF"/>
<rect x="850" y="39" width="25" height="50" fill="#01CEDF"/>
<rect x="600" y="76" width="75" height="25" fill="white"/>
<rect x="600" width="75" height="25" fill="white"/>
<rect x="100" y="39" width="75" height="25" fill="white"/>
<rect x="800" y="77" width="75" height="25" fill="#01CEDF"/>
</svg>
